<svg xmlns="http://www.w3.org/2000/svg" version="1.1" viewBox="-5.0 -10.0 110.0 135.0">
 <path d="m55.125 40.875h-10.25c-2.5312 0-4.5938 2.0625-4.5938 4.5938v10.25c0 2.5312 2.0625 4.5938 4.5938 4.5938h10.25c2.5312 0 4.5938-2.0625 4.5938-4.5938v-10.25c0-2.5312-2.0625-4.5938-4.5938-4.5938zm1.4688 14.844c0 0.8125-0.65625 1.4688-1.4688 1.4688h-10.25c-0.8125 0-1.4688-0.65625-1.4688-1.4688v-10.25c0-0.8125 0.65625-1.4688 1.4688-1.4688h10.25c0.8125 0 1.4688 0.65625 1.4688 1.4688zm-26.156-14.844h-10.25c-2.5312 0-4.5938 2.0625-4.5938 4.5938v10.25c0 2.5312 2.0625 4.5938 4.5938 4.5938h10.25c2.5312 0 4.5938-2.0625 4.5938-4.5938v-10.25c0-2.5312-2.0625-4.5938-4.5938-4.5938zm1.4688 14.844c0 0.8125-0.65625 1.4688-1.4688 1.4688h-10.25c-0.8125 0-1.4688-0.65625-1.4688-1.4688v-10.25c0-0.8125 0.65625-1.4688 1.4688-1.4688h10.25c0.8125 0 1.4688 0.65625 1.4688 1.4688zm47.906-14.844h-10.25c-2.5312 0-4.5938 2.0625-4.5938 4.5938v10.25c0 2.5312 2.0625 4.5938 4.5938 4.5938h10.25c2.5312 0 4.5938-2.0625 4.5938-4.5938v-10.25c0-2.5312-2.0625-4.5938-4.5938-4.5938zm1.4688 14.844c0 0.8125-0.65625 1.4688-1.4688 1.4688h-10.25c-0.8125 0-1.4688-0.65625-1.4688-1.4688v-10.25c0-0.8125 0.65625-1.4688 1.4688-1.4688h10.25c0.8125 0 1.4688 0.65625 1.4688 1.4688zm-26.156 9.5156h-10.25c-2.5312 0-4.5938 2.0625-4.5938 4.5938v10.25c0 2.5312 2.0625 4.5938 4.5938 4.5938h10.25c2.5312 0 4.5938-2.0625 4.5938-4.5938v-10.25c0-2.5312-2.0625-4.5938-4.5938-4.5938zm1.4688 14.844c0 0.8125-0.65625 1.4688-1.4688 1.4688h-10.25c-0.8125 0-1.4688-0.65625-1.4688-1.4688v-10.25c0-0.8125 0.65625-1.4688 1.4688-1.4688h10.25c0.8125 0 1.4688 0.65625 1.4688 1.4688zm-26.156-14.844h-10.25c-2.5312 0-4.5938 2.0625-4.5938 4.5938v10.25c0 2.5312 2.0625 4.5938 4.5938 4.5938h10.25c2.5312 0 4.5938-2.0625 4.5938-4.5938v-10.25c0-2.5312-2.0625-4.5938-4.5938-4.5938zm1.4688 14.844c0 0.8125-0.65625 1.4688-1.4688 1.4688h-10.25c-0.8125 0-1.4688-0.65625-1.4688-1.4688v-10.25c0-0.8125 0.65625-1.4688 1.4688-1.4688h10.25c0.8125 0 1.4688 0.65625 1.4688 1.4688zm47.906-14.844h-10.25c-2.5312 0-4.5938 2.0625-4.5938 4.5938v10.25c0 2.5312 2.0625 4.5938 4.5938 4.5938h10.25c2.5312 0 4.5938-2.0625 4.5938-4.5938v-10.25c0-2.5312-2.0625-4.5938-4.5938-4.5938zm1.4688 14.844c0 0.8125-0.65625 1.4688-1.4688 1.4688h-10.25c-0.8125 0-1.4688-0.65625-1.4688-1.4688v-10.25c0-0.8125 0.65625-1.4688 1.4688-1.4688h10.25c0.8125 0 1.4688 0.65625 1.4688 1.4688zm-52.062-32.438c0.64062 0.57812 0.70312 1.5625 0.125 2.2031l-3.75 4.2188c-0.28125 0.32812-0.70312 0.51562-1.125 0.53125h-0.03125c-0.42188 0-0.82812-0.17188-1.1094-0.46875l-2-2.0469c-0.60938-0.60938-0.59375-1.6094 0.015625-2.2031 0.60938-0.60938 1.6094-0.59375 2.2031 0.015625l0.82812 0.84375 2.6406-2.9688c0.57812-0.64062 1.5625-0.70312 2.2031-0.125zm24.484 25.969-1.5 1.5 1.5 1.5c0.60938 0.60938 0.60938 1.5938 0 2.2031-0.3125 0.3125-0.70312 0.45312-1.1094 0.45312s-0.79688-0.15625-1.1094-0.45312l-1.5-1.5-1.5 1.5c-0.3125 0.3125-0.70312 0.45312-1.1094 0.45312s-0.79688-0.15625-1.1094-0.45312c-0.60938-0.60938-0.60938-1.5938 0-2.2031l1.5-1.5-1.5-1.5c-0.60938-0.60938-0.60938-1.5938 0-2.2031s1.5938-0.60938 2.2031 0l1.5 1.5 1.5-1.5c0.60938-0.60938 1.5938-0.60938 2.2031 0s0.60938 1.5938 0 2.2031zm0.1875-25.969c0.64062 0.57812 0.70312 1.5625 0.125 2.2031l-3.75 4.2188c-0.28125 0.32812-0.70312 0.51562-1.125 0.53125h-0.03125c-0.42188 0-0.82812-0.17188-1.1094-0.46875l-2-2.0469c-0.60938-0.60938-0.59375-1.6094 0.03125-2.2031 0.60938-0.60938 1.6094-0.59375 2.2031 0.03125l0.82812 0.84375 2.6406-2.9688c0.57812-0.64062 1.5625-0.70312 2.2031-0.125zm24.688 24.359c0.64062 0.57812 0.70312 1.5625 0.125 2.2031l-3.75 4.2188c-0.28125 0.32812-0.70312 0.51562-1.125 0.53125h-0.03125c-0.42188 0-0.82812-0.17188-1.1094-0.46875l-2-2.0469c-0.60938-0.60938-0.59375-1.6094 0.015625-2.2031 0.60938-0.60938 1.6094-0.59375 2.2031 0.015625l0.82812 0.84375 2.6406-2.9688c0.57812-0.64062 1.5625-0.70312 2.2031-0.125zm-49.375 0c0.64062 0.57812 0.70312 1.5625 0.125 2.2031l-3.75 4.2188c-0.28125 0.32812-0.70312 0.51562-1.125 0.53125h-0.03125c-0.42188 0-0.82812-0.17188-1.1094-0.46875l-2-2.0469c-0.60938-0.60938-0.59375-1.6094 0.015625-2.2031 0.60938-0.60938 1.6094-0.59375 2.2031 0.015625l0.82812 0.84375 2.6406-2.9688c0.57812-0.64062 1.5625-0.70312 2.2031-0.125zm49.172-22.75-1.5 1.5 1.5 1.5c0.60938 0.60938 0.60938 1.5938 0 2.2031-0.3125 0.3125-0.70312 0.45312-1.1094 0.45312s-0.79688-0.15625-1.1094-0.45312l-1.5-1.5-1.5 1.5c-0.3125 0.3125-0.70312 0.45312-1.1094 0.45312s-0.79688-0.15625-1.1094-0.45312c-0.60938-0.60938-0.60938-1.5938 0-2.2031l1.5-1.5-1.5-1.5c-0.60938-0.60938-0.60938-1.5938 0-2.2031s1.5938-0.60938 2.2031 0l1.5 1.5 1.5-1.5c0.60938-0.60938 1.5938-0.60938 2.2031 0s0.60938 1.5938 0 2.2031zm9.4375-33.953h-7.1562v-4.5469c0-2.8594-2.3281-5.2031-5.2031-5.2031h-2.4375c-2.8594 0-5.2031 2.3281-5.2031 5.2031v4.5469h-11.438v-4.5469c0-2.8594-2.3281-5.2031-5.2031-5.2031h-2.4375c-2.8594 0-5.2031 2.3281-5.2031 5.2031v4.5469h-11.438v-4.5469c0-2.8594-2.3281-5.2031-5.2031-5.2031h-2.4375c-2.8594 0-5.2031 2.3281-5.2031 5.2031v4.5469h-7.1562c-4.125 0-7.4688 3.3594-7.4688 7.4688v64.203c0 4.125 3.3594 7.4688 7.4688 7.4688h75.688c4.125 0 7.4688-3.3594 7.4688-7.4688v-64.203c0-4.125-3.3594-7.4688-7.4688-7.4688zm-16.859-4.5469c0-1.1406 0.9375-2.0781 2.0781-2.0781h2.4375c1.1406 0 2.0781 0.9375 2.0781 2.0781v12.125c0 1.1406-0.9375 2.0781-2.0781 2.0781h-2.4375c-1.1406 0-2.0781-0.9375-2.0781-2.0781zm-24.266 0c0-1.1406 0.9375-2.0781 2.0781-2.0781h2.4375c1.1406 0 2.0781 0.9375 2.0781 2.0781v12.125c0 1.1406-0.9375 2.0781-2.0781 2.0781h-2.4375c-1.1406 0-2.0781-0.9375-2.0781-2.0781zm-24.266 0c0-1.1406 0.9375-2.0781 2.0781-2.0781h2.4375c1.1406 0 2.0781 0.9375 2.0781 2.0781v12.125c0 1.1406-0.9375 2.0781-2.0781 2.0781h-2.4375c-1.1406 0-2.0781-0.9375-2.0781-2.0781zm-10.281 7.6719h7.1562v4.4531c0 2.8594 2.3281 5.2031 5.2031 5.2031h2.4375c2.8594 0 5.2031-2.3281 5.2031-5.2031v-4.4531h11.438v4.4531c0 2.8594 2.3281 5.2031 5.2031 5.2031h2.4375c2.8594 0 5.2031-2.3281 5.2031-5.2031v-4.4531h11.438v4.4531c0 2.8594 2.3281 5.2031 5.2031 5.2031h2.4375c2.8594 0 5.2031-2.3281 5.2031-5.2031v-4.4531h7.1562c2.3906 0 4.3438 1.9531 4.3438 4.3438v9.5156h-84.391v-9.5156c0-2.3906 1.9531-4.3438 4.3438-4.3438zm75.688 72.891h-75.672c-2.3906 0-4.3438-1.9531-4.3438-4.3438v-51.562h84.375v51.562c0 2.3906-1.9531 4.3438-4.3438 4.3438z"/>
</svg>