<svg xmlns="http://www.w3.org/2000/svg" xmlns:xlink="http://www.w3.org/1999/xlink" version="1.1" x="0px" y="0px" viewBox="0 0 64 80" style="enable-background:new 0 0 64 64;" xml:space="preserve"><g><g><g><path d="M10.7,12v11.7h11.7V12H10.7z M19.4,20.7h-5.7v-5.7h5.7V20.7z"/><path d="M41.6,12v11.7h11.7V12H41.6z M50.3,20.7h-5.7v-5.7h5.7V20.7z"/><path d="M10.7,40.3V52h11.7V40.3H10.7z M19.4,49.1h-5.7v-5.7h5.7V49.1z"/></g><g><path d="M28.5,45.3c0-0.8,0.1-1.6,0-2.4c0-0.7,0.2-0.9,0.9-0.9c0.8,0.1,1.6,0,2.6,0c0-1.3,0-2.6,0-3.8c0-0.9-0.3-2.1,0.2-2.6     c0.5-0.5,1.8-0.2,2.7-0.2c0.2,0,0.4,0,0.6,0l0,0c0,1.1,0,2.2,0,3.4c2.5,0,4.8,0,7.2,0l0,0c0,1.1,0,2.2,0,3.3c1.3,0,2.4,0,3.6,0     l0,0c0,1.1,0,2.1,0,3.3c-1.1,0-2.2,0-3.4,0c0,2.3,0,4.4,0,6.6c-1.2,0-2.3,0-3.5,0c0-1,0-2.1,0-3.3c-2.5,0-4.9,0-7.2,0l0,0     c0-1.1,0-2.1,0-3.4C30.7,45.3,29.6,45.3,28.5,45.3L28.5,45.3z M39.1,45.3c0-1.2,0-2.2,0-3.3c-1,0-1.9,0-2.8,0     c-0.2,0-0.6,0.4-0.6,0.6c-0.1,0.9,0,1.8,0,2.7C36.8,45.3,37.9,45.3,39.1,45.3z"/><path d="M35.6,35.3c0-0.8,0.1-1.5,0-2.3c0-0.8,0.2-1.1,1-1c0.8,0.1,1.6,0,2.5,0c0-1.4,0-2.7,0-4c0-2.6,0-2.6,2.8-2.6     c3.4,0,6.8,0,10.1,0c0.4,0,0.8,0,1.2,0c0,1.1,0,2.1,0,3.3c-0.9,0-1.8,0-2.6,0c-0.6,0-0.9,0.1-0.9,0.7c0,0.8,0,1.6,0,2.6     c1.2,0,2.3,0,3.5,0c0,1.1,0,2.1,0,3.3c-2.3,0-4.7,0-7.1,0l0,0c0-2.2,0-4.4,0-6.6c-1.3,0-2.4,0-3.6,0c0,2.2,0,4.3,0,6.5     C40.2,35.3,37.9,35.3,35.6,35.3L35.6,35.3z"/><path d="M28.4,25.3c0-1.1,0-2.1,0-3.3c-1.2,0-2.3,0-3.3,0C25,21.9,25,21.8,25,21.8c0-0.9-0.3-2.1,0.1-2.7     c0.4-0.5,1.8-0.2,2.7-0.3c0.2,0,0.4,0,0.7-0.1c0-0.8,0-1.6,0-2.4c0-0.7,0.2-0.9,0.9-0.9c2,0,4,0,6.2,0c0-0.9,0-1.7,0-2.5     c0-0.6,0.2-0.9,0.9-0.9c0.8,0,1.6,0,2.5,0c0,2.2,0,4.3,0,6.6c-2.3,0-4.6,0-7,0c0,2.3,0,4.4,0,6.6C30.7,25.3,29.6,25.3,28.4,25.3     C28.4,25.3,28.4,25.3,28.4,25.3z"/><path d="M46.2,42c0-0.9,0-1.7,0.1-2.6c0-0.2,0.4-0.6,0.6-0.6c2.1,0,4.2,0,6.4,0c0,3.3,0,6.5,0,9.9c-1.1,0-2.2,0-3.5,0     c0,1.2,0,2.2,0,3.3c-1.2,0-2.3,0-3.5,0c0-2,0-4,0-5.9c0-0.2,0.4-0.5,0.7-0.5c0.9-0.1,1.8,0,2.8,0c0-1.1,0-2.2,0-3.4     C48.6,41.9,47.4,41.9,46.2,42C46.2,41.9,46.2,42,46.2,42z"/><path d="M21.3,35.3c0.1-1,0.1-2,0.2-3.2c2.3,0,4.6,0,7.1,0c0-0.9,0-1.8,0-2.6c0-0.6,0.2-0.8,0.8-0.8c0.8,0,1.7,0,2.7,0     c0-1.1,0-2.1,0-3.2c1.2-0.1,2.4-0.1,3.5-0.2l0,0c0,2.2,0,4.3,0,6.7c-1.1,0-2.2,0-3.5,0c0,1.2,0,2.2,0,3.3     C28.3,35.3,24.8,35.3,21.3,35.3L21.3,35.3z"/><path d="M14.1,32c0-0.8,0.1-1.5,0.1-2.3c-0.1-0.8,0.3-1,1.1-1c0.8,0.1,1.5,0,2.5,0c0-0.8,0-1.6,0-2.4c-0.1-0.7,0.2-1,1-0.9     c2.8,0,5.7,0,8.5,0c0.4,0,0.7-0.1,1.1-0.1c0,0,0,0,0,0c0,1.1,0,2.2,0,3.4c-2,0-4,0-5.9,0c-0.9,0-1.3,0.2-1.2,1.1     c0.1,0.7,0,1.4,0,2.2C18.9,31.9,16.5,31.9,14.1,32L14.1,32z"/><path d="M32,48.6c0,0.9,0,1.9,0,2.8c0,0.1,0,0.3-0.1,0.5c-2.3,0-4.6,0-7,0c0-2,0-4,0-6.1c0-0.1,0.4-0.4,0.7-0.4     c0.9-0.1,1.8-0.1,2.8-0.1l0,0c0,1.1,0,2.2,0,3.4C29.8,48.6,30.9,48.6,32,48.6L32,48.6z"/><path d="M14.1,31.9c0,2.2,0,4.4,0,6.7c-1.1,0-2.2,0-3.4,0c0-1.4,0-2.9,0-4.3c0-2.2,0-2.2,2.4-2.2C13.4,32.1,13.8,32,14.1,31.9     C14.1,32,14.1,31.9,14.1,31.9z"/><path d="M28.4,12.2c0,1.1,0,2.1,0,3.2c-1.1,0-2.2,0-3.4,0c0-0.9,0-1.8,0-2.6c0-0.2,0.4-0.5,0.6-0.5     C26.5,12.1,27.4,12.2,28.4,12.2z"/><path d="M35.5,25.3c0-0.8,0.1-1.6,0.1-2.5c0-0.6,0.2-0.8,0.8-0.8c0.8,0,1.7,0,2.6,0c0,1.1,0,2.1,0,3.2     C37.9,25.3,36.7,25.3,35.5,25.3C35.5,25.3,35.5,25.3,35.5,25.3z"/><path d="M14.1,28.6c-1.2,0-2.2,0-3.4,0c0-0.9,0-1.8,0-2.6c0-0.2,0.4-0.5,0.6-0.6c0.9-0.1,1.8,0,2.8,0     C14.1,26.5,14.1,27.6,14.1,28.6z"/><path d="M21.2,35.3c0,1.1,0,2.2,0,3.3c-1.1,0-2.2,0-3.4,0c0-0.9-0.1-1.8,0-2.6c0-0.2,0.5-0.5,0.8-0.5     C19.5,35.3,20.4,35.3,21.2,35.3C21.3,35.3,21.2,35.3,21.2,35.3z"/><path d="M46.2,35.3c0,1.1,0,2.1,0,3.3c-1.2,0-2.4,0-3.6,0l0,0c0-0.9,0.1-1.7,0-2.6c0-0.5,0.2-0.7,0.8-0.7     C44.4,35.4,45.4,35.4,46.2,35.3L46.2,35.3z"/><path d="M28.3,41.9c-1.1,0-2.2,0-3.4,0c0-0.9,0-1.8,0-2.7c0-0.2,0.4-0.5,0.6-0.5c0.9-0.1,1.8,0,2.8,0     C28.3,39.8,28.3,40.8,28.3,41.9z"/></g></g><g><polygon points="59,39.2 59,59 41.7,59 41.7,55.7 55.7,55.7 55.7,39.2   "/><polygon points="23.3,55.7 23.3,59 5,59 5,39.3 8.3,39.3 8.3,55.7   "/><polygon points="23.4,5 23.4,8.3 8.3,8.3 8.3,24.7 5,24.7 5,5   "/><polygon points="59,5 59,24.8 55.7,24.8 55.7,8.3 40.6,8.3 40.6,5   "/></g></g></svg>